G04 #@! TF.GenerationSoftware,KiCad,Pcbnew,(6.0.0)*
G04 #@! TF.CreationDate,2022-02-06T23:40:04-05:00*
G04 #@! TF.ProjectId,Contra,436f6e74-7261-42e6-9b69-6361645f7063,rev?*
G04 #@! TF.SameCoordinates,Original*
G04 #@! TF.FileFunction,Copper,L1,Top*
G04 #@! TF.FilePolarity,Positive*
%FSLAX46Y46*%
G04 Gerber Fmt 4.6, Leading zero omitted, Abs format (unit mm)*
G04 Created by KiCad (PCBNEW (6.0.0)) date 2022-02-06 23:40:04*
%MOMM*%
%LPD*%
G01*
G04 APERTURE LIST*
G04 Aperture macros list*
%AMHorizOval*
0 Thick line with rounded ends*
0 $1 width*
0 $2 $3 position (X,Y) of the first rounded end (center of the circle)*
0 $4 $5 position (X,Y) of the second rounded end (center of the circle)*
0 Add line between two ends*
20,1,$1,$2,$3,$4,$5,0*
0 Add two circle primitives to create the rounded ends*
1,1,$1,$2,$3*
1,1,$1,$4,$5*%
G04 Aperture macros list end*
G04 #@! TA.AperFunction,ComponentPad*
%ADD10C,2.250000*%
G04 #@! TD*
G04 #@! TA.AperFunction,ComponentPad*
%ADD11HorizOval,2.250000X0.655001X0.730000X-0.655001X-0.730000X0*%
G04 #@! TD*
G04 #@! TA.AperFunction,ComponentPad*
%ADD12HorizOval,2.250000X0.020000X0.290000X-0.020000X-0.290000X0*%
G04 #@! TD*
G04 #@! TA.AperFunction,ComponentPad*
%ADD13C,0.700000*%
G04 #@! TD*
G04 #@! TA.AperFunction,ComponentPad*
%ADD14C,4.400000*%
G04 #@! TD*
G04 #@! TA.AperFunction,ComponentPad*
%ADD15R,1.600000X1.600000*%
G04 #@! TD*
G04 #@! TA.AperFunction,ComponentPad*
%ADD16O,1.600000X1.600000*%
G04 #@! TD*
G04 #@! TA.AperFunction,ComponentPad*
%ADD17R,1.700000X1.700000*%
G04 #@! TD*
G04 #@! TA.AperFunction,ComponentPad*
%ADD18O,1.700000X1.700000*%
G04 #@! TD*
G04 #@! TA.AperFunction,ComponentPad*
%ADD19C,2.032000*%
G04 #@! TD*
G04 #@! TA.AperFunction,ComponentPad*
%ADD20C,1.800000*%
G04 #@! TD*
G04 #@! TA.AperFunction,ViaPad*
%ADD21C,0.600000*%
G04 #@! TD*
G04 #@! TA.AperFunction,Conductor*
%ADD22C,0.250000*%
G04 #@! TD*
G04 #@! TA.AperFunction,Conductor*
%ADD23C,0.381000*%
G04 #@! TD*
G04 APERTURE END LIST*
D10*
X35600000Y-34100000D03*
D11*
X34945001Y-34830000D03*
D12*
X40620000Y-33310000D03*
D10*
X40640000Y-33020000D03*
X54650000Y-34100000D03*
D11*
X53995001Y-34830000D03*
D10*
X59690000Y-33020000D03*
D12*
X59670000Y-33310000D03*
D10*
X73700000Y-34100000D03*
D11*
X73045001Y-34830000D03*
D12*
X78720000Y-33310000D03*
D10*
X78740000Y-33020000D03*
D11*
X92095001Y-34830000D03*
D10*
X92750000Y-34100000D03*
D12*
X97770000Y-33310000D03*
D10*
X97790000Y-33020000D03*
X111800000Y-34100000D03*
D11*
X111145001Y-34830000D03*
D10*
X116840000Y-33020000D03*
D12*
X116820000Y-33310000D03*
D10*
X130850000Y-34100000D03*
D11*
X130195001Y-34830000D03*
D12*
X135870000Y-33310000D03*
D10*
X135890000Y-33020000D03*
D11*
X149245001Y-34830000D03*
D10*
X149900000Y-34100000D03*
X154940000Y-33020000D03*
D12*
X154920000Y-33310000D03*
D10*
X168950000Y-34100000D03*
D11*
X168295001Y-34830000D03*
D12*
X173970000Y-33310000D03*
D10*
X173990000Y-33020000D03*
X188000000Y-34100000D03*
D11*
X187345001Y-34830000D03*
D10*
X193040000Y-33020000D03*
D12*
X193020000Y-33310000D03*
D11*
X206395001Y-34830000D03*
D10*
X207050000Y-34100000D03*
D12*
X212070000Y-33310000D03*
D10*
X212090000Y-33020000D03*
D11*
X225445001Y-34830000D03*
D10*
X226100000Y-34100000D03*
X231140000Y-33020000D03*
D12*
X231120000Y-33310000D03*
D11*
X244495001Y-34830000D03*
D10*
X245150000Y-34100000D03*
D12*
X250170000Y-33310000D03*
D10*
X250190000Y-33020000D03*
D11*
X34945001Y-53880000D03*
D10*
X35600000Y-53150000D03*
X40640000Y-52070000D03*
D12*
X40620000Y-52360000D03*
D10*
X54650000Y-53150000D03*
D11*
X53995001Y-53880000D03*
D12*
X59670000Y-52360000D03*
D10*
X59690000Y-52070000D03*
D11*
X73045001Y-53880000D03*
D10*
X73700000Y-53150000D03*
D12*
X78720000Y-52360000D03*
D10*
X78740000Y-52070000D03*
X92750000Y-53150000D03*
D11*
X92095001Y-53880000D03*
D12*
X97770000Y-52360000D03*
D10*
X97790000Y-52070000D03*
D11*
X111145001Y-53880000D03*
D10*
X111800000Y-53150000D03*
X116840000Y-52070000D03*
D12*
X116820000Y-52360000D03*
D10*
X130850000Y-53150000D03*
D11*
X130195001Y-53880000D03*
D12*
X135870000Y-52360000D03*
D10*
X135890000Y-52070000D03*
X149900000Y-53150000D03*
D11*
X149245001Y-53880000D03*
D12*
X154920000Y-52360000D03*
D10*
X154940000Y-52070000D03*
X168950000Y-53150000D03*
D11*
X168295001Y-53880000D03*
D10*
X173990000Y-52070000D03*
D12*
X173970000Y-52360000D03*
D11*
X187345001Y-53880000D03*
D10*
X188000000Y-53150000D03*
X193040000Y-52070000D03*
D12*
X193020000Y-52360000D03*
D10*
X207050000Y-53150000D03*
D11*
X206395001Y-53880000D03*
D12*
X212070000Y-52360000D03*
D10*
X212090000Y-52070000D03*
X226100000Y-53150000D03*
D11*
X225445001Y-53880000D03*
D10*
X231140000Y-52070000D03*
D12*
X231120000Y-52360000D03*
D10*
X245150000Y-53150000D03*
D11*
X244495001Y-53880000D03*
D12*
X250170000Y-52360000D03*
D10*
X250190000Y-52070000D03*
X35600000Y-72200000D03*
D11*
X34945001Y-72930000D03*
D10*
X40640000Y-71120000D03*
D12*
X40620000Y-71410000D03*
D11*
X53995001Y-72930000D03*
D10*
X54650000Y-72200000D03*
X59690000Y-71120000D03*
D12*
X59670000Y-71410000D03*
D10*
X73700000Y-72200000D03*
D11*
X73045001Y-72930000D03*
D10*
X78740000Y-71120000D03*
D12*
X78720000Y-71410000D03*
D11*
X92095001Y-72930000D03*
D10*
X92750000Y-72200000D03*
X97790000Y-71120000D03*
D12*
X97770000Y-71410000D03*
D10*
X111800000Y-72200000D03*
D11*
X111145001Y-72930000D03*
D12*
X116820000Y-71410000D03*
D10*
X116840000Y-71120000D03*
X130850000Y-72200000D03*
D11*
X130195001Y-72930000D03*
D12*
X135870000Y-71410000D03*
D10*
X135890000Y-71120000D03*
X149900000Y-72200000D03*
D11*
X149245001Y-72930000D03*
D10*
X154940000Y-71120000D03*
D12*
X154920000Y-71410000D03*
D10*
X168950000Y-72200000D03*
D11*
X168295001Y-72930000D03*
D10*
X173990000Y-71120000D03*
D12*
X173970000Y-71410000D03*
D10*
X188000000Y-72200000D03*
D11*
X187345001Y-72930000D03*
D12*
X193020000Y-71410000D03*
D10*
X193040000Y-71120000D03*
D11*
X206395001Y-72930000D03*
D10*
X207050000Y-72200000D03*
D12*
X212070000Y-71410000D03*
D10*
X212090000Y-71120000D03*
X226100000Y-72200000D03*
D11*
X225445001Y-72930000D03*
D10*
X231140000Y-71120000D03*
D12*
X231120000Y-71410000D03*
D10*
X245150000Y-72200000D03*
D11*
X244495001Y-72930000D03*
D12*
X250170000Y-71410000D03*
D10*
X250190000Y-71120000D03*
D11*
X34945001Y-91980000D03*
D10*
X35600000Y-91250000D03*
X40640000Y-90170000D03*
D12*
X40620000Y-90460000D03*
D11*
X53995001Y-91980000D03*
D10*
X54650000Y-91250000D03*
X59690000Y-90170000D03*
D12*
X59670000Y-90460000D03*
D10*
X73700000Y-91250000D03*
D11*
X73045001Y-91980000D03*
D10*
X78740000Y-90170000D03*
D12*
X78720000Y-90460000D03*
D11*
X92095001Y-91980000D03*
D10*
X92750000Y-91250000D03*
X97790000Y-90170000D03*
D12*
X97770000Y-90460000D03*
D10*
X111800000Y-91250000D03*
D11*
X111145001Y-91980000D03*
D12*
X116820000Y-90460000D03*
D10*
X116840000Y-90170000D03*
D11*
X130195001Y-91980000D03*
D10*
X130850000Y-91250000D03*
X135890000Y-90170000D03*
D12*
X135870000Y-90460000D03*
D10*
X149900000Y-91250000D03*
D11*
X149245001Y-91980000D03*
D12*
X154920000Y-90460000D03*
D10*
X154940000Y-90170000D03*
X168950000Y-91250000D03*
D11*
X168295001Y-91980000D03*
D12*
X173970000Y-90460000D03*
D10*
X173990000Y-90170000D03*
D11*
X187345001Y-91980000D03*
D10*
X188000000Y-91250000D03*
D12*
X193020000Y-90460000D03*
D10*
X193040000Y-90170000D03*
X207050000Y-91250000D03*
D11*
X206395001Y-91980000D03*
D12*
X212070000Y-90460000D03*
D10*
X212090000Y-90170000D03*
D11*
X225445001Y-91980000D03*
D10*
X226100000Y-91250000D03*
X231140000Y-90170000D03*
D12*
X231120000Y-90460000D03*
D10*
X245150000Y-91250000D03*
D11*
X244495001Y-91980000D03*
D12*
X250170000Y-90460000D03*
D10*
X250190000Y-90170000D03*
D11*
X139720001Y-91980000D03*
D10*
X140375000Y-91250000D03*
X145415000Y-90170000D03*
D12*
X145395000Y-90460000D03*
D13*
X236958274Y-86891726D03*
X239775000Y-85725000D03*
X239291726Y-84558274D03*
X236958274Y-84558274D03*
X236475000Y-85725000D03*
X238125000Y-87375000D03*
X239291726Y-86891726D03*
X238125000Y-84075000D03*
D14*
X238125000Y-85725000D03*
D13*
X238125000Y-49275000D03*
X236958274Y-46458274D03*
D14*
X238125000Y-47625000D03*
D13*
X236475000Y-47625000D03*
X239291726Y-46458274D03*
X239291726Y-48791726D03*
X239775000Y-47625000D03*
X236958274Y-48791726D03*
X238125000Y-45975000D03*
X141225000Y-66675000D03*
X141708274Y-65508274D03*
X144041726Y-65508274D03*
X144525000Y-66675000D03*
X144041726Y-67841726D03*
X142875000Y-65025000D03*
X142875000Y-68325000D03*
X141708274Y-67841726D03*
D14*
X142875000Y-66675000D03*
D13*
X49275000Y-47625000D03*
X46458274Y-48791726D03*
X48791726Y-46458274D03*
X45975000Y-47625000D03*
X46458274Y-46458274D03*
X47625000Y-49275000D03*
X47625000Y-45975000D03*
X48791726Y-48791726D03*
D14*
X47625000Y-47625000D03*
D13*
X48791726Y-86891726D03*
X49275000Y-85725000D03*
X45975000Y-85725000D03*
D14*
X47625000Y-85725000D03*
D13*
X47625000Y-87375000D03*
X46458274Y-86891726D03*
X47625000Y-84075000D03*
X46458274Y-84558274D03*
X48791726Y-84558274D03*
D15*
X47625000Y-41751250D03*
D16*
X47625000Y-34131250D03*
D15*
X60801250Y-47625000D03*
D16*
X53181250Y-47625000D03*
D15*
X79851250Y-66675000D03*
D16*
X72231250Y-66675000D03*
D15*
X104775000Y-41751250D03*
D16*
X104775000Y-34131250D03*
D15*
X123825000Y-41751250D03*
D16*
X123825000Y-34131250D03*
D15*
X142875000Y-41751250D03*
D16*
X142875000Y-34131250D03*
D15*
X161925000Y-41751250D03*
D16*
X161925000Y-34131250D03*
D15*
X180975000Y-41751250D03*
D16*
X180975000Y-34131250D03*
D15*
X200025000Y-41751250D03*
D16*
X200025000Y-34131250D03*
D15*
X219075000Y-41751250D03*
D16*
X219075000Y-34131250D03*
D15*
X238125000Y-41751250D03*
D16*
X238125000Y-34131250D03*
D15*
X251301250Y-47625000D03*
D16*
X243681250Y-47625000D03*
D15*
X42068750Y-47625000D03*
D16*
X34448750Y-47625000D03*
D15*
X60801250Y-66675000D03*
D16*
X53181250Y-66675000D03*
D15*
X98901250Y-66675000D03*
D16*
X91281250Y-66675000D03*
D15*
X104775000Y-60801250D03*
D16*
X104775000Y-53181250D03*
D15*
X123825000Y-60801250D03*
D16*
X123825000Y-53181250D03*
D15*
X142875000Y-60801250D03*
D16*
X142875000Y-53181250D03*
D15*
X161925000Y-60801250D03*
D16*
X161925000Y-53181250D03*
D15*
X180975000Y-60801250D03*
D16*
X180975000Y-53181250D03*
D15*
X200025000Y-60801250D03*
D16*
X200025000Y-53181250D03*
D15*
X219075000Y-60801250D03*
D16*
X219075000Y-53181250D03*
D15*
X238125000Y-60801250D03*
D16*
X238125000Y-53181250D03*
D15*
X251301250Y-66675000D03*
D16*
X243681250Y-66675000D03*
D15*
X61118750Y-85725000D03*
D16*
X53498750Y-85725000D03*
D15*
X66675000Y-79851250D03*
D16*
X66675000Y-72231250D03*
D15*
X85725000Y-79851250D03*
D16*
X85725000Y-72231250D03*
D15*
X104775000Y-79851250D03*
D16*
X104775000Y-72231250D03*
D15*
X123825000Y-79851250D03*
D16*
X123825000Y-72231250D03*
D15*
X142875000Y-79851250D03*
D16*
X142875000Y-72231250D03*
D15*
X161925000Y-79851250D03*
D16*
X161925000Y-72231250D03*
D15*
X180975000Y-79851250D03*
D16*
X180975000Y-72231250D03*
D15*
X200025000Y-79851250D03*
D16*
X200025000Y-72231250D03*
D15*
X219075000Y-79851250D03*
D16*
X219075000Y-72231250D03*
D15*
X232251250Y-85725000D03*
D16*
X224631250Y-85725000D03*
D15*
X238125000Y-79851250D03*
D16*
X238125000Y-72231250D03*
D15*
X41751250Y-85725000D03*
D16*
X34131250Y-85725000D03*
D15*
X47625000Y-98901250D03*
D16*
X47625000Y-91281250D03*
D15*
X66675000Y-98901250D03*
D16*
X66675000Y-91281250D03*
D15*
X85725000Y-98901250D03*
D16*
X85725000Y-91281250D03*
D15*
X104775000Y-98901250D03*
D16*
X104775000Y-91281250D03*
D15*
X123825000Y-98901250D03*
D16*
X123825000Y-91281250D03*
D15*
X161925000Y-98901250D03*
D16*
X161925000Y-91281250D03*
D15*
X180975000Y-98901250D03*
D16*
X180975000Y-91281250D03*
D15*
X200025000Y-98901250D03*
D16*
X200025000Y-91281250D03*
D15*
X219075000Y-98901250D03*
D16*
X219075000Y-91281250D03*
D15*
X238125000Y-98901250D03*
D16*
X238125000Y-91281250D03*
D15*
X251301250Y-85725000D03*
D16*
X243681250Y-85725000D03*
D17*
X41910000Y-66675000D03*
D18*
X39370000Y-66675000D03*
X36830000Y-66675000D03*
X34290000Y-66675000D03*
D19*
X83820000Y-32543750D03*
X83820000Y-35083750D03*
X83820000Y-37623750D03*
X83820000Y-40163750D03*
X83820000Y-42703750D03*
X83820000Y-45243750D03*
X83820000Y-47783750D03*
X83820000Y-50323750D03*
X83820000Y-52863750D03*
X83820000Y-55403750D03*
X83820000Y-57943750D03*
X83820000Y-60483750D03*
X68580000Y-60483750D03*
X68580000Y-57943750D03*
X68580000Y-55403750D03*
X68580000Y-52863750D03*
X68580000Y-50323750D03*
X68580000Y-47783750D03*
X68580000Y-45243750D03*
X68580000Y-42703750D03*
X68580000Y-40163750D03*
X68580000Y-37623750D03*
X68580000Y-35083750D03*
X68580000Y-32543750D03*
D20*
X49875000Y-63425000D03*
X45375000Y-69925000D03*
X45375000Y-63425000D03*
X49875000Y-69925000D03*
D21*
X57785000Y-69596000D03*
X58547000Y-69088000D03*
D22*
X68580000Y-55403750D02*
X60801250Y-63182500D01*
X60801250Y-63182500D02*
X60801250Y-66675000D01*
X68072000Y-62103000D02*
X68072000Y-78454250D01*
X67056000Y-59467750D02*
X67056000Y-61087000D01*
X67056000Y-61087000D02*
X68072000Y-62103000D01*
X68580000Y-57943750D02*
X67056000Y-59467750D01*
X68072000Y-78454250D02*
X66675000Y-79851250D01*
X68580000Y-96996250D02*
X66675000Y-98901250D01*
X68580000Y-60483750D02*
X68580000Y-96996250D01*
X35600000Y-39031974D02*
X35600000Y-53150000D01*
X64827990Y-35744990D02*
X60452000Y-31369000D01*
X43561000Y-65405000D02*
X40767000Y-62611000D01*
X42354500Y-69024500D02*
X43561000Y-67818000D01*
X68580000Y-42703750D02*
X66292590Y-40416340D01*
X39370000Y-54610000D02*
X40767000Y-56007000D01*
X35600000Y-72200000D02*
X38775500Y-69024500D01*
X60452000Y-31369000D02*
X36576000Y-31369000D01*
X64827991Y-35746401D02*
X64827990Y-35744990D01*
X36576000Y-31369000D02*
X35600000Y-32345000D01*
X40767000Y-56007000D02*
X40767000Y-62611000D01*
X35600000Y-32345000D02*
X35600000Y-34100000D01*
X66292590Y-37211000D02*
X64827991Y-35746401D01*
X34290000Y-54610000D02*
X39370000Y-54610000D01*
X43561000Y-67818000D02*
X43561000Y-65405000D01*
X35600000Y-34100000D02*
X35600000Y-39031974D01*
X38775500Y-69024500D02*
X42354500Y-69024500D01*
X35600000Y-72200000D02*
X35600000Y-91250000D01*
X66292590Y-40416340D02*
X66292590Y-37211000D01*
X54650000Y-34100000D02*
X54650000Y-47821252D01*
X54650000Y-51181000D02*
X54650000Y-53150000D01*
X68580000Y-45243750D02*
X60166250Y-45243750D01*
X54650000Y-72200000D02*
X54650000Y-73790990D01*
X60166250Y-45243750D02*
X54650000Y-50760000D01*
X54650000Y-53150000D02*
X54650000Y-72200000D01*
X54650000Y-73790990D02*
X54650000Y-91250000D01*
X54650000Y-47821252D02*
X54650000Y-51181000D01*
X54650000Y-50760000D02*
X54650000Y-51181000D01*
X78867000Y-56134000D02*
X78867000Y-57023000D01*
X77343000Y-54610000D02*
X78867000Y-56134000D01*
X73787000Y-53063000D02*
X73700000Y-53150000D01*
X82327750Y-60483750D02*
X78867000Y-57023000D01*
X83820000Y-60483750D02*
X82327750Y-60483750D01*
X72390000Y-54610000D02*
X77343000Y-54610000D01*
X73700000Y-53150000D02*
X73700000Y-72200000D01*
X73787000Y-35687000D02*
X72517000Y-35687000D01*
X73787000Y-51054000D02*
X73787000Y-35687000D01*
X73700000Y-72200000D02*
X73700000Y-91250000D01*
X72517000Y-35687000D02*
X72390000Y-35560000D01*
X73787000Y-51054000D02*
X73787000Y-53063000D01*
X92750000Y-72350000D02*
X91440000Y-73660000D01*
X92456000Y-35560000D02*
X91440000Y-35560000D01*
X92750000Y-35854000D02*
X92456000Y-35560000D01*
X92456000Y-73660000D02*
X91440000Y-73660000D01*
X92750000Y-73954000D02*
X92456000Y-73660000D01*
X92750000Y-53150000D02*
X92750000Y-72350000D01*
X92750000Y-53150000D02*
X92750000Y-35854000D01*
X92750000Y-91250000D02*
X92750000Y-73954000D01*
X111506000Y-73660000D02*
X110490000Y-73660000D01*
X111800000Y-72350000D02*
X110490000Y-73660000D01*
X111800000Y-91250000D02*
X111800000Y-73954000D01*
X111800000Y-73954000D02*
X111506000Y-73660000D01*
X111800000Y-53150000D02*
X111800000Y-72350000D01*
X111800000Y-53150000D02*
X111800000Y-34100000D01*
X128270000Y-85852000D02*
X130850000Y-83272000D01*
X130850000Y-91250000D02*
X128270000Y-88670000D01*
X128270000Y-88670000D02*
X128270000Y-85852000D01*
X130850000Y-83272000D02*
X130850000Y-82931000D01*
X130850000Y-34100000D02*
X130850000Y-53150000D01*
X130850000Y-82931000D02*
X130850000Y-72200000D01*
X130850000Y-53150000D02*
X130850000Y-72200000D01*
X149900000Y-89659010D02*
X149900000Y-72200000D01*
X149900000Y-72200000D02*
X149900000Y-53150000D01*
X149900000Y-91250000D02*
X149900000Y-89659010D01*
X149900000Y-34100000D02*
X149900000Y-53150000D01*
X168950000Y-70609010D02*
X168950000Y-53150000D01*
X168950000Y-91250000D02*
X168950000Y-89659010D01*
X168950000Y-72200000D02*
X168950000Y-70609010D01*
X168950000Y-89659010D02*
X168950000Y-72200000D01*
X168950000Y-37168026D02*
X168950000Y-34100000D01*
X168950000Y-53150000D02*
X168950000Y-37168026D01*
X188000000Y-34100000D02*
X188000000Y-53150000D01*
X188000000Y-72200000D02*
X188000000Y-91250000D01*
X188000000Y-53150000D02*
X188000000Y-72200000D01*
X207050000Y-91250000D02*
X207050000Y-72200000D01*
X207050000Y-53150000D02*
X207050000Y-34100000D01*
X207050000Y-72200000D02*
X207050000Y-70609010D01*
X207050000Y-70609010D02*
X207050000Y-53150000D01*
X226100000Y-34100000D02*
X226100000Y-53150000D01*
X226100000Y-53150000D02*
X226100000Y-54740990D01*
X226100000Y-72200000D02*
X226100000Y-91400000D01*
X226100000Y-54740990D02*
X226100000Y-72200000D01*
X226100000Y-91400000D02*
X224790000Y-92710000D01*
X245150000Y-53150000D02*
X245150000Y-72200000D01*
X245150000Y-34100000D02*
X245150000Y-35690990D01*
X245150000Y-73790990D02*
X245150000Y-91250000D01*
X245150000Y-35690990D02*
X245150000Y-53150000D01*
X245150000Y-72200000D02*
X245150000Y-73790990D01*
X81977349Y-35781099D02*
X78072099Y-35781099D01*
X78072099Y-35781099D02*
X74803000Y-32512000D01*
X74803000Y-32512000D02*
X71151750Y-32512000D01*
X83820000Y-37623750D02*
X83820000Y-40163750D01*
X83820000Y-37623750D02*
X81977349Y-35781099D01*
X71151750Y-32512000D02*
X68580000Y-35083750D01*
D23*
X60706000Y-30734000D02*
X36322000Y-30734000D01*
X67024250Y-37052250D02*
X60706000Y-30734000D01*
X31496000Y-63881000D02*
X34290000Y-66675000D01*
X31496000Y-35560000D02*
X31496000Y-60325000D01*
X31496000Y-60325000D02*
X31496000Y-63881000D01*
X67024250Y-38608000D02*
X67024250Y-37052250D01*
X36322000Y-30734000D02*
X31496000Y-35560000D01*
X68580000Y-40163750D02*
X67024250Y-38608000D01*
D22*
X57785000Y-64643000D02*
X57785000Y-68199000D01*
X57785000Y-68199000D02*
X57785000Y-69596000D01*
X66421000Y-56007000D02*
X57785000Y-64643000D01*
X66421000Y-52482750D02*
X66421000Y-56007000D01*
X68580000Y-50323750D02*
X66421000Y-52482750D01*
X58293000Y-68834000D02*
X58547000Y-69088000D01*
X66929000Y-56261000D02*
X58293000Y-64897000D01*
X66929000Y-54514750D02*
X66929000Y-56261000D01*
X58293000Y-64897000D02*
X58293000Y-68834000D01*
X68580000Y-52863750D02*
X66929000Y-54514750D01*
M02*
