G04 #@! TF.GenerationSoftware,KiCad,Pcbnew,(6.0.0)*
G04 #@! TF.CreationDate,2022-02-06T23:40:04-05:00*
G04 #@! TF.ProjectId,Contra,436f6e74-7261-42e6-9b69-6361645f7063,rev?*
G04 #@! TF.SameCoordinates,Original*
G04 #@! TF.FileFunction,Copper,L2,Bot*
G04 #@! TF.FilePolarity,Positive*
%FSLAX46Y46*%
G04 Gerber Fmt 4.6, Leading zero omitted, Abs format (unit mm)*
G04 Created by KiCad (PCBNEW (6.0.0)) date 2022-02-06 23:40:04*
%MOMM*%
%LPD*%
G01*
G04 APERTURE LIST*
G04 Aperture macros list*
%AMHorizOval*
0 Thick line with rounded ends*
0 $1 width*
0 $2 $3 position (X,Y) of the first rounded end (center of the circle)*
0 $4 $5 position (X,Y) of the second rounded end (center of the circle)*
0 Add line between two ends*
20,1,$1,$2,$3,$4,$5,0*
0 Add two circle primitives to create the rounded ends*
1,1,$1,$2,$3*
1,1,$1,$4,$5*%
G04 Aperture macros list end*
G04 #@! TA.AperFunction,ComponentPad*
%ADD10C,2.250000*%
G04 #@! TD*
G04 #@! TA.AperFunction,ComponentPad*
%ADD11HorizOval,2.250000X0.655001X0.730000X-0.655001X-0.730000X0*%
G04 #@! TD*
G04 #@! TA.AperFunction,ComponentPad*
%ADD12HorizOval,2.250000X0.020000X0.290000X-0.020000X-0.290000X0*%
G04 #@! TD*
G04 #@! TA.AperFunction,ComponentPad*
%ADD13C,0.700000*%
G04 #@! TD*
G04 #@! TA.AperFunction,ComponentPad*
%ADD14C,4.400000*%
G04 #@! TD*
G04 #@! TA.AperFunction,ComponentPad*
%ADD15R,1.600000X1.600000*%
G04 #@! TD*
G04 #@! TA.AperFunction,ComponentPad*
%ADD16O,1.600000X1.600000*%
G04 #@! TD*
G04 #@! TA.AperFunction,ComponentPad*
%ADD17R,1.700000X1.700000*%
G04 #@! TD*
G04 #@! TA.AperFunction,ComponentPad*
%ADD18O,1.700000X1.700000*%
G04 #@! TD*
G04 #@! TA.AperFunction,ComponentPad*
%ADD19C,2.032000*%
G04 #@! TD*
G04 #@! TA.AperFunction,ComponentPad*
%ADD20C,1.800000*%
G04 #@! TD*
G04 #@! TA.AperFunction,ViaPad*
%ADD21C,0.600000*%
G04 #@! TD*
G04 #@! TA.AperFunction,Conductor*
%ADD22C,0.250000*%
G04 #@! TD*
G04 #@! TA.AperFunction,Conductor*
%ADD23C,0.381000*%
G04 #@! TD*
G04 APERTURE END LIST*
D10*
X35600000Y-34100000D03*
D11*
X34945001Y-34830000D03*
D12*
X40620000Y-33310000D03*
D10*
X40640000Y-33020000D03*
X54650000Y-34100000D03*
D11*
X53995001Y-34830000D03*
D10*
X59690000Y-33020000D03*
D12*
X59670000Y-33310000D03*
D10*
X73700000Y-34100000D03*
D11*
X73045001Y-34830000D03*
D12*
X78720000Y-33310000D03*
D10*
X78740000Y-33020000D03*
D11*
X92095001Y-34830000D03*
D10*
X92750000Y-34100000D03*
D12*
X97770000Y-33310000D03*
D10*
X97790000Y-33020000D03*
X111800000Y-34100000D03*
D11*
X111145001Y-34830000D03*
D10*
X116840000Y-33020000D03*
D12*
X116820000Y-33310000D03*
D10*
X130850000Y-34100000D03*
D11*
X130195001Y-34830000D03*
D12*
X135870000Y-33310000D03*
D10*
X135890000Y-33020000D03*
D11*
X149245001Y-34830000D03*
D10*
X149900000Y-34100000D03*
X154940000Y-33020000D03*
D12*
X154920000Y-33310000D03*
D10*
X168950000Y-34100000D03*
D11*
X168295001Y-34830000D03*
D12*
X173970000Y-33310000D03*
D10*
X173990000Y-33020000D03*
X188000000Y-34100000D03*
D11*
X187345001Y-34830000D03*
D10*
X193040000Y-33020000D03*
D12*
X193020000Y-33310000D03*
D11*
X206395001Y-34830000D03*
D10*
X207050000Y-34100000D03*
D12*
X212070000Y-33310000D03*
D10*
X212090000Y-33020000D03*
D11*
X225445001Y-34830000D03*
D10*
X226100000Y-34100000D03*
X231140000Y-33020000D03*
D12*
X231120000Y-33310000D03*
D11*
X244495001Y-34830000D03*
D10*
X245150000Y-34100000D03*
D12*
X250170000Y-33310000D03*
D10*
X250190000Y-33020000D03*
D11*
X34945001Y-53880000D03*
D10*
X35600000Y-53150000D03*
X40640000Y-52070000D03*
D12*
X40620000Y-52360000D03*
D10*
X54650000Y-53150000D03*
D11*
X53995001Y-53880000D03*
D12*
X59670000Y-52360000D03*
D10*
X59690000Y-52070000D03*
D11*
X73045001Y-53880000D03*
D10*
X73700000Y-53150000D03*
D12*
X78720000Y-52360000D03*
D10*
X78740000Y-52070000D03*
X92750000Y-53150000D03*
D11*
X92095001Y-53880000D03*
D12*
X97770000Y-52360000D03*
D10*
X97790000Y-52070000D03*
D11*
X111145001Y-53880000D03*
D10*
X111800000Y-53150000D03*
X116840000Y-52070000D03*
D12*
X116820000Y-52360000D03*
D10*
X130850000Y-53150000D03*
D11*
X130195001Y-53880000D03*
D12*
X135870000Y-52360000D03*
D10*
X135890000Y-52070000D03*
X149900000Y-53150000D03*
D11*
X149245001Y-53880000D03*
D12*
X154920000Y-52360000D03*
D10*
X154940000Y-52070000D03*
X168950000Y-53150000D03*
D11*
X168295001Y-53880000D03*
D10*
X173990000Y-52070000D03*
D12*
X173970000Y-52360000D03*
D11*
X187345001Y-53880000D03*
D10*
X188000000Y-53150000D03*
X193040000Y-52070000D03*
D12*
X193020000Y-52360000D03*
D10*
X207050000Y-53150000D03*
D11*
X206395001Y-53880000D03*
D12*
X212070000Y-52360000D03*
D10*
X212090000Y-52070000D03*
X226100000Y-53150000D03*
D11*
X225445001Y-53880000D03*
D10*
X231140000Y-52070000D03*
D12*
X231120000Y-52360000D03*
D10*
X245150000Y-53150000D03*
D11*
X244495001Y-53880000D03*
D12*
X250170000Y-52360000D03*
D10*
X250190000Y-52070000D03*
X35600000Y-72200000D03*
D11*
X34945001Y-72930000D03*
D10*
X40640000Y-71120000D03*
D12*
X40620000Y-71410000D03*
D11*
X53995001Y-72930000D03*
D10*
X54650000Y-72200000D03*
X59690000Y-71120000D03*
D12*
X59670000Y-71410000D03*
D10*
X73700000Y-72200000D03*
D11*
X73045001Y-72930000D03*
D10*
X78740000Y-71120000D03*
D12*
X78720000Y-71410000D03*
D11*
X92095001Y-72930000D03*
D10*
X92750000Y-72200000D03*
X97790000Y-71120000D03*
D12*
X97770000Y-71410000D03*
D10*
X111800000Y-72200000D03*
D11*
X111145001Y-72930000D03*
D12*
X116820000Y-71410000D03*
D10*
X116840000Y-71120000D03*
X130850000Y-72200000D03*
D11*
X130195001Y-72930000D03*
D12*
X135870000Y-71410000D03*
D10*
X135890000Y-71120000D03*
X149900000Y-72200000D03*
D11*
X149245001Y-72930000D03*
D10*
X154940000Y-71120000D03*
D12*
X154920000Y-71410000D03*
D10*
X168950000Y-72200000D03*
D11*
X168295001Y-72930000D03*
D10*
X173990000Y-71120000D03*
D12*
X173970000Y-71410000D03*
D10*
X188000000Y-72200000D03*
D11*
X187345001Y-72930000D03*
D12*
X193020000Y-71410000D03*
D10*
X193040000Y-71120000D03*
D11*
X206395001Y-72930000D03*
D10*
X207050000Y-72200000D03*
D12*
X212070000Y-71410000D03*
D10*
X212090000Y-71120000D03*
X226100000Y-72200000D03*
D11*
X225445001Y-72930000D03*
D10*
X231140000Y-71120000D03*
D12*
X231120000Y-71410000D03*
D10*
X245150000Y-72200000D03*
D11*
X244495001Y-72930000D03*
D12*
X250170000Y-71410000D03*
D10*
X250190000Y-71120000D03*
D11*
X34945001Y-91980000D03*
D10*
X35600000Y-91250000D03*
X40640000Y-90170000D03*
D12*
X40620000Y-90460000D03*
D11*
X53995001Y-91980000D03*
D10*
X54650000Y-91250000D03*
X59690000Y-90170000D03*
D12*
X59670000Y-90460000D03*
D10*
X73700000Y-91250000D03*
D11*
X73045001Y-91980000D03*
D10*
X78740000Y-90170000D03*
D12*
X78720000Y-90460000D03*
D11*
X92095001Y-91980000D03*
D10*
X92750000Y-91250000D03*
X97790000Y-90170000D03*
D12*
X97770000Y-90460000D03*
D10*
X111800000Y-91250000D03*
D11*
X111145001Y-91980000D03*
D12*
X116820000Y-90460000D03*
D10*
X116840000Y-90170000D03*
D11*
X130195001Y-91980000D03*
D10*
X130850000Y-91250000D03*
X135890000Y-90170000D03*
D12*
X135870000Y-90460000D03*
D10*
X149900000Y-91250000D03*
D11*
X149245001Y-91980000D03*
D12*
X154920000Y-90460000D03*
D10*
X154940000Y-90170000D03*
X168950000Y-91250000D03*
D11*
X168295001Y-91980000D03*
D12*
X173970000Y-90460000D03*
D10*
X173990000Y-90170000D03*
D11*
X187345001Y-91980000D03*
D10*
X188000000Y-91250000D03*
D12*
X193020000Y-90460000D03*
D10*
X193040000Y-90170000D03*
X207050000Y-91250000D03*
D11*
X206395001Y-91980000D03*
D12*
X212070000Y-90460000D03*
D10*
X212090000Y-90170000D03*
D11*
X225445001Y-91980000D03*
D10*
X226100000Y-91250000D03*
X231140000Y-90170000D03*
D12*
X231120000Y-90460000D03*
D10*
X245150000Y-91250000D03*
D11*
X244495001Y-91980000D03*
D12*
X250170000Y-90460000D03*
D10*
X250190000Y-90170000D03*
D11*
X139720001Y-91980000D03*
D10*
X140375000Y-91250000D03*
X145415000Y-90170000D03*
D12*
X145395000Y-90460000D03*
D13*
X236958274Y-86891726D03*
X239775000Y-85725000D03*
X239291726Y-84558274D03*
X236958274Y-84558274D03*
X236475000Y-85725000D03*
X238125000Y-87375000D03*
X239291726Y-86891726D03*
X238125000Y-84075000D03*
D14*
X238125000Y-85725000D03*
D13*
X238125000Y-49275000D03*
X236958274Y-46458274D03*
D14*
X238125000Y-47625000D03*
D13*
X236475000Y-47625000D03*
X239291726Y-46458274D03*
X239291726Y-48791726D03*
X239775000Y-47625000D03*
X236958274Y-48791726D03*
X238125000Y-45975000D03*
X141225000Y-66675000D03*
X141708274Y-65508274D03*
X144041726Y-65508274D03*
X144525000Y-66675000D03*
X144041726Y-67841726D03*
X142875000Y-65025000D03*
X142875000Y-68325000D03*
X141708274Y-67841726D03*
D14*
X142875000Y-66675000D03*
D13*
X49275000Y-47625000D03*
X46458274Y-48791726D03*
X48791726Y-46458274D03*
X45975000Y-47625000D03*
X46458274Y-46458274D03*
X47625000Y-49275000D03*
X47625000Y-45975000D03*
X48791726Y-48791726D03*
D14*
X47625000Y-47625000D03*
D13*
X48791726Y-86891726D03*
X49275000Y-85725000D03*
X45975000Y-85725000D03*
D14*
X47625000Y-85725000D03*
D13*
X47625000Y-87375000D03*
X46458274Y-86891726D03*
X47625000Y-84075000D03*
X46458274Y-84558274D03*
X48791726Y-84558274D03*
D15*
X47625000Y-41751250D03*
D16*
X47625000Y-34131250D03*
D15*
X60801250Y-47625000D03*
D16*
X53181250Y-47625000D03*
D15*
X79851250Y-66675000D03*
D16*
X72231250Y-66675000D03*
D15*
X104775000Y-41751250D03*
D16*
X104775000Y-34131250D03*
D15*
X123825000Y-41751250D03*
D16*
X123825000Y-34131250D03*
D15*
X142875000Y-41751250D03*
D16*
X142875000Y-34131250D03*
D15*
X161925000Y-41751250D03*
D16*
X161925000Y-34131250D03*
D15*
X180975000Y-41751250D03*
D16*
X180975000Y-34131250D03*
D15*
X200025000Y-41751250D03*
D16*
X200025000Y-34131250D03*
D15*
X219075000Y-41751250D03*
D16*
X219075000Y-34131250D03*
D15*
X238125000Y-41751250D03*
D16*
X238125000Y-34131250D03*
D15*
X251301250Y-47625000D03*
D16*
X243681250Y-47625000D03*
D15*
X42068750Y-47625000D03*
D16*
X34448750Y-47625000D03*
D15*
X60801250Y-66675000D03*
D16*
X53181250Y-66675000D03*
D15*
X98901250Y-66675000D03*
D16*
X91281250Y-66675000D03*
D15*
X104775000Y-60801250D03*
D16*
X104775000Y-53181250D03*
D15*
X123825000Y-60801250D03*
D16*
X123825000Y-53181250D03*
D15*
X142875000Y-60801250D03*
D16*
X142875000Y-53181250D03*
D15*
X161925000Y-60801250D03*
D16*
X161925000Y-53181250D03*
D15*
X180975000Y-60801250D03*
D16*
X180975000Y-53181250D03*
D15*
X200025000Y-60801250D03*
D16*
X200025000Y-53181250D03*
D15*
X219075000Y-60801250D03*
D16*
X219075000Y-53181250D03*
D15*
X238125000Y-60801250D03*
D16*
X238125000Y-53181250D03*
D15*
X251301250Y-66675000D03*
D16*
X243681250Y-66675000D03*
D15*
X61118750Y-85725000D03*
D16*
X53498750Y-85725000D03*
D15*
X66675000Y-79851250D03*
D16*
X66675000Y-72231250D03*
D15*
X85725000Y-79851250D03*
D16*
X85725000Y-72231250D03*
D15*
X104775000Y-79851250D03*
D16*
X104775000Y-72231250D03*
D15*
X123825000Y-79851250D03*
D16*
X123825000Y-72231250D03*
D15*
X142875000Y-79851250D03*
D16*
X142875000Y-72231250D03*
D15*
X161925000Y-79851250D03*
D16*
X161925000Y-72231250D03*
D15*
X180975000Y-79851250D03*
D16*
X180975000Y-72231250D03*
D15*
X200025000Y-79851250D03*
D16*
X200025000Y-72231250D03*
D15*
X219075000Y-79851250D03*
D16*
X219075000Y-72231250D03*
D15*
X232251250Y-85725000D03*
D16*
X224631250Y-85725000D03*
D15*
X238125000Y-79851250D03*
D16*
X238125000Y-72231250D03*
D15*
X41751250Y-85725000D03*
D16*
X34131250Y-85725000D03*
D15*
X47625000Y-98901250D03*
D16*
X47625000Y-91281250D03*
D15*
X66675000Y-98901250D03*
D16*
X66675000Y-91281250D03*
D15*
X85725000Y-98901250D03*
D16*
X85725000Y-91281250D03*
D15*
X104775000Y-98901250D03*
D16*
X104775000Y-91281250D03*
D15*
X123825000Y-98901250D03*
D16*
X123825000Y-91281250D03*
D15*
X161925000Y-98901250D03*
D16*
X161925000Y-91281250D03*
D15*
X180975000Y-98901250D03*
D16*
X180975000Y-91281250D03*
D15*
X200025000Y-98901250D03*
D16*
X200025000Y-91281250D03*
D15*
X219075000Y-98901250D03*
D16*
X219075000Y-91281250D03*
D15*
X238125000Y-98901250D03*
D16*
X238125000Y-91281250D03*
D15*
X251301250Y-85725000D03*
D16*
X243681250Y-85725000D03*
D17*
X41910000Y-66675000D03*
D18*
X39370000Y-66675000D03*
X36830000Y-66675000D03*
X34290000Y-66675000D03*
D19*
X83820000Y-32543750D03*
X83820000Y-35083750D03*
X83820000Y-37623750D03*
X83820000Y-40163750D03*
X83820000Y-42703750D03*
X83820000Y-45243750D03*
X83820000Y-47783750D03*
X83820000Y-50323750D03*
X83820000Y-52863750D03*
X83820000Y-55403750D03*
X83820000Y-57943750D03*
X83820000Y-60483750D03*
X68580000Y-60483750D03*
X68580000Y-57943750D03*
X68580000Y-55403750D03*
X68580000Y-52863750D03*
X68580000Y-50323750D03*
X68580000Y-47783750D03*
X68580000Y-45243750D03*
X68580000Y-42703750D03*
X68580000Y-40163750D03*
X68580000Y-37623750D03*
X68580000Y-35083750D03*
X68580000Y-32543750D03*
D20*
X49875000Y-63425000D03*
X45375000Y-69925000D03*
X45375000Y-63425000D03*
X49875000Y-69925000D03*
D21*
X57785000Y-69596000D03*
X58547000Y-69088000D03*
D22*
X241808000Y-48133000D02*
X241808000Y-45434250D01*
X182025000Y-41751250D02*
X200025000Y-41751250D01*
X86360000Y-32766000D02*
X84582000Y-30988000D01*
X161925000Y-41751250D02*
X162975000Y-41751250D01*
X68421250Y-47625000D02*
X68580000Y-47783750D01*
X249650250Y-49276000D02*
X242951000Y-49276000D01*
X79851250Y-66675000D02*
X78801250Y-66675000D01*
X73533000Y-42830750D02*
X68580000Y-47783750D01*
X219075000Y-41751250D02*
X220125000Y-41751250D01*
X105825000Y-41751250D02*
X123825000Y-41751250D01*
X51689000Y-45815250D02*
X47625000Y-41751250D01*
X77978000Y-30988000D02*
X76708000Y-32258000D01*
X162975000Y-41751250D02*
X180975000Y-41751250D01*
X76708000Y-32258000D02*
X76708000Y-33782000D01*
X73533000Y-36957000D02*
X73533000Y-42830750D01*
X76708000Y-33782000D02*
X73533000Y-36957000D01*
X124875000Y-41751250D02*
X142875000Y-41751250D01*
X142875000Y-41751250D02*
X143925000Y-41751250D01*
X104775000Y-41751250D02*
X105825000Y-41751250D01*
X84582000Y-30988000D02*
X77978000Y-30988000D01*
X89376250Y-41751250D02*
X86360000Y-38735000D01*
X200025000Y-41751250D02*
X201075000Y-41751250D01*
X76642250Y-68834000D02*
X70866000Y-68834000D01*
X60801250Y-47625000D02*
X55372000Y-47625000D01*
X143925000Y-41751250D02*
X161925000Y-41751250D01*
X51689000Y-48260000D02*
X51689000Y-45815250D01*
X66167000Y-64135000D02*
X66167000Y-52990750D01*
X86360000Y-38735000D02*
X86360000Y-32766000D01*
X70866000Y-68834000D02*
X66167000Y-64135000D01*
X104775000Y-41751250D02*
X89376250Y-41751250D01*
X52578000Y-49149000D02*
X51689000Y-48260000D01*
X201075000Y-41751250D02*
X219075000Y-41751250D01*
X220125000Y-41751250D02*
X238125000Y-41751250D01*
X66167000Y-52990750D02*
X60801250Y-47625000D01*
X78801250Y-66675000D02*
X76642250Y-68834000D01*
X60801250Y-47625000D02*
X68421250Y-47625000D01*
X242951000Y-49276000D02*
X241808000Y-48133000D01*
X123825000Y-41751250D02*
X124875000Y-41751250D01*
X55372000Y-47625000D02*
X53848000Y-49149000D01*
X180975000Y-41751250D02*
X182025000Y-41751250D01*
X53848000Y-49149000D02*
X52578000Y-49149000D01*
X241808000Y-45434250D02*
X238125000Y-41751250D01*
X251301250Y-47625000D02*
X249650250Y-49276000D01*
X40640000Y-33020000D02*
X46513750Y-33020000D01*
X46513750Y-33020000D02*
X47625000Y-34131250D01*
X59690000Y-33020000D02*
X59690000Y-41116250D01*
X59690000Y-41116250D02*
X53181250Y-47625000D01*
X79375000Y-34275000D02*
X78700000Y-33600000D01*
X78740000Y-60166250D02*
X78740000Y-55118000D01*
X78740000Y-34610990D02*
X78740000Y-33020000D01*
X72231250Y-66675000D02*
X78740000Y-60166250D01*
X78740000Y-55118000D02*
X76962000Y-53340000D01*
X76962000Y-51435000D02*
X79375000Y-49022000D01*
X79375000Y-49022000D02*
X79375000Y-35245990D01*
X79375000Y-35245990D02*
X79375000Y-34275000D01*
X76962000Y-53340000D02*
X76962000Y-51435000D01*
X97790000Y-33020000D02*
X103663750Y-33020000D01*
X103663750Y-33020000D02*
X104775000Y-34131250D01*
X122713750Y-33020000D02*
X123825000Y-34131250D01*
X116840000Y-33020000D02*
X122713750Y-33020000D01*
X135890000Y-33020000D02*
X141763750Y-33020000D01*
X141763750Y-33020000D02*
X142875000Y-34131250D01*
X154940000Y-33020000D02*
X160813750Y-33020000D01*
X160813750Y-33020000D02*
X161925000Y-34131250D01*
X173990000Y-33020000D02*
X179863750Y-33020000D01*
X179863750Y-33020000D02*
X180975000Y-34131250D01*
X198913750Y-33020000D02*
X200025000Y-34131250D01*
X193040000Y-33020000D02*
X198913750Y-33020000D01*
X217963750Y-33020000D02*
X219075000Y-34131250D01*
X212090000Y-33020000D02*
X217963750Y-33020000D01*
X237013750Y-33020000D02*
X238125000Y-34131250D01*
X231140000Y-33020000D02*
X237013750Y-33020000D01*
X250190000Y-33020000D02*
X250190000Y-41116250D01*
X250190000Y-41116250D02*
X243681250Y-47625000D01*
X98901250Y-66675000D02*
X98901250Y-65625000D01*
X98901250Y-66675000D02*
X97851250Y-66675000D01*
X142875000Y-60801250D02*
X143925000Y-60801250D01*
X45466000Y-55753000D02*
X45466000Y-61214000D01*
X42068750Y-49561750D02*
X43180000Y-50673000D01*
X161925000Y-60801250D02*
X180975000Y-60801250D01*
X238125000Y-63119000D02*
X243078000Y-68072000D01*
X45466000Y-61214000D02*
X52578000Y-68326000D01*
X105825000Y-60801250D02*
X123825000Y-60801250D01*
X59150250Y-68326000D02*
X60801250Y-66675000D01*
X124875000Y-60801250D02*
X142875000Y-60801250D01*
X95184250Y-69342000D02*
X63468250Y-69342000D01*
X43180000Y-50673000D02*
X43180000Y-53467000D01*
X238125000Y-60801250D02*
X238125000Y-63119000D01*
X143925000Y-60801250D02*
X161925000Y-60801250D01*
X219075000Y-60801250D02*
X238125000Y-60801250D01*
X98901250Y-65625000D02*
X103725000Y-60801250D01*
X63468250Y-69342000D02*
X60801250Y-66675000D01*
X243078000Y-68072000D02*
X249904250Y-68072000D01*
X180975000Y-60801250D02*
X182025000Y-60801250D01*
X123825000Y-60801250D02*
X124875000Y-60801250D01*
X103725000Y-60801250D02*
X104775000Y-60801250D01*
X42068750Y-47625000D02*
X42068750Y-49561750D01*
X182025000Y-60801250D02*
X200025000Y-60801250D01*
X43180000Y-53467000D02*
X45466000Y-55753000D01*
X52578000Y-68326000D02*
X59150250Y-68326000D01*
X200025000Y-60801250D02*
X219075000Y-60801250D01*
X104775000Y-60801250D02*
X105825000Y-60801250D01*
X249904250Y-68072000D02*
X251301250Y-66675000D01*
X97851250Y-66675000D02*
X95184250Y-69342000D01*
X36195000Y-47625000D02*
X40640000Y-52070000D01*
X34448750Y-47625000D02*
X36195000Y-47625000D01*
X59690000Y-52070000D02*
X59690000Y-60166250D01*
X59690000Y-60166250D02*
X53181250Y-66675000D01*
X87757000Y-66675000D02*
X79248000Y-58166000D01*
X91281250Y-66675000D02*
X87757000Y-66675000D01*
X79248000Y-52578000D02*
X78740000Y-52070000D01*
X79248000Y-58166000D02*
X79248000Y-52578000D01*
X103663750Y-52070000D02*
X104775000Y-53181250D01*
X97790000Y-52070000D02*
X103663750Y-52070000D01*
X122713750Y-52070000D02*
X123825000Y-53181250D01*
X117983000Y-52070000D02*
X122713750Y-52070000D01*
X117403000Y-52650000D02*
X117983000Y-52070000D01*
X116800000Y-52650000D02*
X117403000Y-52650000D01*
X141763750Y-52070000D02*
X142875000Y-53181250D01*
X135890000Y-52070000D02*
X141763750Y-52070000D01*
X154940000Y-52070000D02*
X160813750Y-52070000D01*
X160813750Y-52070000D02*
X161925000Y-53181250D01*
X179863750Y-52070000D02*
X180975000Y-53181250D01*
X173990000Y-52070000D02*
X179863750Y-52070000D01*
X198913750Y-52070000D02*
X200025000Y-53181250D01*
X193603000Y-52650000D02*
X194183000Y-52070000D01*
X193000000Y-52650000D02*
X193603000Y-52650000D01*
X194183000Y-52070000D02*
X198913750Y-52070000D01*
X217963750Y-52070000D02*
X219075000Y-53181250D01*
X212090000Y-52070000D02*
X217963750Y-52070000D01*
X231140000Y-52070000D02*
X237013750Y-52070000D01*
X237013750Y-52070000D02*
X238125000Y-53181250D01*
X250190000Y-60166250D02*
X243681250Y-66675000D01*
X250190000Y-52070000D02*
X250190000Y-60166250D01*
X224028000Y-87122000D02*
X230854250Y-87122000D01*
X230854250Y-87122000D02*
X232251250Y-85725000D01*
X161925000Y-79851250D02*
X180975000Y-79851250D01*
X219075000Y-79851250D02*
X219075000Y-82169000D01*
X105825000Y-79851250D02*
X123825000Y-79851250D01*
X200025000Y-79851250D02*
X201075000Y-79851250D01*
X61118750Y-85407500D02*
X66675000Y-79851250D01*
X142875000Y-79851250D02*
X161925000Y-79851250D01*
X86775000Y-79851250D02*
X104775000Y-79851250D01*
X182025000Y-79851250D02*
X200025000Y-79851250D01*
X123825000Y-79851250D02*
X124875000Y-79851250D01*
X67725000Y-79851250D02*
X85725000Y-79851250D01*
X66675000Y-79851250D02*
X67725000Y-79851250D01*
X85725000Y-79851250D02*
X86775000Y-79851250D01*
X180975000Y-79851250D02*
X182025000Y-79851250D01*
X124875000Y-79851250D02*
X142875000Y-79851250D01*
X104775000Y-79851250D02*
X105825000Y-79851250D01*
X201075000Y-79851250D02*
X219075000Y-79851250D01*
X219075000Y-82169000D02*
X224028000Y-87122000D01*
X61118750Y-85725000D02*
X61118750Y-85407500D01*
X238125000Y-79851250D02*
X232251250Y-85725000D01*
X40600000Y-71700000D02*
X41728000Y-71700000D01*
X53498750Y-83470750D02*
X53498750Y-85725000D01*
X41728000Y-71700000D02*
X53498750Y-83470750D01*
X60960000Y-71120000D02*
X65563750Y-71120000D01*
X65563750Y-71120000D02*
X66675000Y-72231250D01*
X59650000Y-71700000D02*
X60380000Y-71700000D01*
X60380000Y-71700000D02*
X60960000Y-71120000D01*
X84613750Y-71120000D02*
X85725000Y-72231250D01*
X78740000Y-71120000D02*
X84613750Y-71120000D01*
X103663750Y-71120000D02*
X104775000Y-72231250D01*
X97790000Y-71120000D02*
X103663750Y-71120000D01*
X116840000Y-71120000D02*
X122713750Y-71120000D01*
X122713750Y-71120000D02*
X123825000Y-72231250D01*
X135890000Y-71120000D02*
X141763750Y-71120000D01*
X141763750Y-71120000D02*
X142875000Y-72231250D01*
X154900000Y-71700000D02*
X155503000Y-71700000D01*
X155503000Y-71700000D02*
X156083000Y-71120000D01*
X160813750Y-71120000D02*
X161925000Y-72231250D01*
X156083000Y-71120000D02*
X160813750Y-71120000D01*
X179863750Y-71120000D02*
X180975000Y-72231250D01*
X173990000Y-71120000D02*
X179863750Y-71120000D01*
X193040000Y-71120000D02*
X198913750Y-71120000D01*
X198913750Y-71120000D02*
X200025000Y-72231250D01*
X212090000Y-71120000D02*
X217963750Y-71120000D01*
X217963750Y-71120000D02*
X219075000Y-72231250D01*
X231100000Y-79256250D02*
X224631250Y-85725000D01*
X231100000Y-71700000D02*
X231100000Y-79256250D01*
X238924999Y-71431251D02*
X238125000Y-72231250D01*
X240361249Y-69995001D02*
X238924999Y-71431251D01*
X250190000Y-71120000D02*
X249065001Y-69995001D01*
X249065001Y-69995001D02*
X240361249Y-69995001D01*
X85725000Y-98901250D02*
X104775000Y-98901250D01*
X124875000Y-98901250D02*
X161925000Y-98901250D01*
X123825000Y-98901250D02*
X124875000Y-98901250D01*
X48675000Y-98901250D02*
X66675000Y-98901250D01*
X47625000Y-98901250D02*
X48675000Y-98901250D01*
X250317000Y-93345000D02*
X251968000Y-91694000D01*
X219075000Y-98901250D02*
X238125000Y-98901250D01*
X105825000Y-98901250D02*
X123825000Y-98901250D01*
X247808750Y-98901250D02*
X250317000Y-96393000D01*
X180975000Y-98901250D02*
X182025000Y-98901250D01*
X182025000Y-98901250D02*
X200025000Y-98901250D01*
X251968000Y-91694000D02*
X251968000Y-86391750D01*
X238125000Y-98901250D02*
X247808750Y-98901250D01*
X47625000Y-98901250D02*
X47625000Y-93853000D01*
X66675000Y-98901250D02*
X67725000Y-98901250D01*
X41751250Y-87979250D02*
X41751250Y-85725000D01*
X250317000Y-96393000D02*
X250317000Y-93345000D01*
X67725000Y-98901250D02*
X85725000Y-98901250D01*
X47625000Y-93853000D02*
X41751250Y-87979250D01*
X162975000Y-98901250D02*
X180975000Y-98901250D01*
X201075000Y-98901250D02*
X219075000Y-98901250D01*
X104775000Y-98901250D02*
X105825000Y-98901250D01*
X251968000Y-86391750D02*
X251301250Y-85725000D01*
X200025000Y-98901250D02*
X201075000Y-98901250D01*
X161925000Y-98901250D02*
X162975000Y-98901250D01*
X40640000Y-90170000D02*
X36195000Y-85725000D01*
X36195000Y-85725000D02*
X34131250Y-85725000D01*
X48424999Y-90481251D02*
X47625000Y-91281250D01*
X49861249Y-89045001D02*
X48424999Y-90481251D01*
X58565001Y-89045001D02*
X49861249Y-89045001D01*
X59690000Y-90170000D02*
X58565001Y-89045001D01*
X68929250Y-89027000D02*
X67474999Y-90481251D01*
X67474999Y-90481251D02*
X66675000Y-91281250D01*
X78700000Y-90750000D02*
X76977000Y-89027000D01*
X76977000Y-89027000D02*
X68929250Y-89027000D01*
X87961249Y-89045001D02*
X86524999Y-90481251D01*
X86524999Y-90481251D02*
X85725000Y-91281250D01*
X96665001Y-89045001D02*
X87961249Y-89045001D01*
X97790000Y-90170000D02*
X96665001Y-89045001D01*
X116840000Y-90170000D02*
X115715001Y-89045001D01*
X105574999Y-90481251D02*
X104775000Y-91281250D01*
X107011249Y-89045001D02*
X105574999Y-90481251D01*
X115715001Y-89045001D02*
X107011249Y-89045001D01*
X133664010Y-89535000D02*
X134635000Y-89535000D01*
X133664010Y-89535000D02*
X125571250Y-89535000D01*
X143764000Y-89535000D02*
X137065000Y-89535000D01*
X134635000Y-89535000D02*
X135850000Y-90750000D01*
X144979000Y-90750000D02*
X143764000Y-89535000D01*
X137065000Y-89535000D02*
X135850000Y-90750000D01*
X125571250Y-89535000D02*
X123825000Y-91281250D01*
X145375000Y-90750000D02*
X144979000Y-90750000D01*
X160813750Y-90170000D02*
X161925000Y-91281250D01*
X154940000Y-90170000D02*
X160813750Y-90170000D01*
X179863750Y-90170000D02*
X180975000Y-91281250D01*
X173990000Y-90170000D02*
X179863750Y-90170000D01*
X194183000Y-90170000D02*
X198913750Y-90170000D01*
X193603000Y-90750000D02*
X194183000Y-90170000D01*
X198913750Y-90170000D02*
X200025000Y-91281250D01*
X193000000Y-90750000D02*
X193603000Y-90750000D01*
X212090000Y-90170000D02*
X217963750Y-90170000D01*
X217963750Y-90170000D02*
X219075000Y-91281250D01*
X237013750Y-90170000D02*
X238125000Y-91281250D01*
X231140000Y-90170000D02*
X237013750Y-90170000D01*
X245745000Y-85725000D02*
X243681250Y-85725000D01*
X250190000Y-90170000D02*
X245745000Y-85725000D01*
X87153750Y-54610000D02*
X91440000Y-54610000D01*
X83820000Y-57943750D02*
X87153750Y-54610000D01*
X85979000Y-53244750D02*
X85979000Y-49657000D01*
X87376000Y-48260000D02*
X106910000Y-48260000D01*
X85979000Y-49657000D02*
X87376000Y-48260000D01*
X106910000Y-48260000D02*
X111800000Y-53150000D01*
X83820000Y-55403750D02*
X85979000Y-53244750D01*
X132310000Y-92710000D02*
X130850000Y-91250000D01*
X139065000Y-92710000D02*
X132310000Y-92710000D01*
X85471000Y-51212750D02*
X85471000Y-49403000D01*
X85471000Y-49403000D02*
X87122000Y-47752000D01*
X125452000Y-47752000D02*
X130850000Y-53150000D01*
X83820000Y-52863750D02*
X85471000Y-51212750D01*
X87122000Y-47752000D02*
X125452000Y-47752000D01*
X143994000Y-47244000D02*
X149328000Y-52578000D01*
X149328000Y-52578000D02*
X149900000Y-53150000D01*
X83820000Y-50323750D02*
X86899750Y-47244000D01*
X86899750Y-47244000D02*
X143994000Y-47244000D01*
X84867750Y-46736000D02*
X162536000Y-46736000D01*
X162536000Y-46736000D02*
X168950000Y-53150000D01*
X83820000Y-47783750D02*
X84867750Y-46736000D01*
X84836000Y-46228000D02*
X181078000Y-46228000D01*
X83820000Y-45243750D02*
X83851750Y-45243750D01*
X83851750Y-45243750D02*
X84836000Y-46228000D01*
X181078000Y-46228000D02*
X188000000Y-53150000D01*
X86836250Y-45720000D02*
X199620000Y-45720000D01*
X199620000Y-45720000D02*
X207050000Y-53150000D01*
X83820000Y-42703750D02*
X86836250Y-45720000D01*
X85344000Y-36607750D02*
X85344000Y-43434000D01*
X218162000Y-45212000D02*
X226100000Y-53150000D01*
X85979000Y-44069000D02*
X87122000Y-45212000D01*
X87122000Y-45212000D02*
X218162000Y-45212000D01*
X83820000Y-35083750D02*
X85344000Y-36607750D01*
X85344000Y-43434000D02*
X85979000Y-44069000D01*
X240411000Y-51181000D02*
X236347000Y-51181000D01*
X87376000Y-44704000D02*
X229870000Y-44704000D01*
X236347000Y-51181000D02*
X229870000Y-44704000D01*
X243840000Y-54610000D02*
X240411000Y-51181000D01*
X85852000Y-43180000D02*
X87376000Y-44704000D01*
X83820000Y-32543750D02*
X85852000Y-34575750D01*
X85852000Y-34575750D02*
X85852000Y-43180000D01*
X43688000Y-42164000D02*
X43688000Y-53213000D01*
X68580000Y-37623750D02*
X62198250Y-31242000D01*
X62198250Y-31242000D02*
X54610000Y-31242000D01*
X48439000Y-63425000D02*
X49875000Y-63425000D01*
X54610000Y-31242000D02*
X43688000Y-42164000D01*
X45974000Y-55499000D02*
X45974000Y-60960000D01*
X45974000Y-60960000D02*
X48439000Y-63425000D01*
X43688000Y-53213000D02*
X45974000Y-55499000D01*
D23*
X44831000Y-56007000D02*
X42545000Y-53721000D01*
X42545000Y-50927000D02*
X40513000Y-48895000D01*
X44017000Y-69925000D02*
X45375000Y-69925000D01*
X40513000Y-44450000D02*
X54356000Y-30607000D01*
X41910000Y-64516000D02*
X44831000Y-61595000D01*
X54356000Y-30607000D02*
X62484000Y-30607000D01*
X41910000Y-67818000D02*
X44017000Y-69925000D01*
X44831000Y-61595000D02*
X44831000Y-56007000D01*
X66960750Y-35083750D02*
X68580000Y-35083750D01*
X41910000Y-66675000D02*
X41910000Y-64516000D01*
X40513000Y-48895000D02*
X40513000Y-44450000D01*
X42545000Y-53721000D02*
X42545000Y-50927000D01*
X41910000Y-66675000D02*
X41910000Y-67818000D01*
X62484000Y-30607000D02*
X66960750Y-35083750D01*
D22*
X53467000Y-69342000D02*
X50800000Y-72009000D01*
X44450000Y-72009000D02*
X41148000Y-68707000D01*
X57531000Y-69342000D02*
X53467000Y-69342000D01*
X57785000Y-69596000D02*
X57531000Y-69342000D01*
X50800000Y-72009000D02*
X44450000Y-72009000D01*
X41148000Y-68707000D02*
X38862000Y-68707000D01*
X38862000Y-68707000D02*
X36830000Y-66675000D01*
X41402000Y-68199000D02*
X40259000Y-68199000D01*
X58547000Y-69088000D02*
X58293000Y-68834000D01*
X44704000Y-71501000D02*
X41402000Y-68199000D01*
X40259000Y-68199000D02*
X39370000Y-67310000D01*
X39370000Y-67310000D02*
X39370000Y-66675000D01*
X58293000Y-68834000D02*
X53213000Y-68834000D01*
X53213000Y-68834000D02*
X50546000Y-71501000D01*
X50546000Y-71501000D02*
X44704000Y-71501000D01*
M02*
