M48
; DRILL file {KiCad (6.0.0)} date Sun Feb  6 23:40:07 2022
; FORMAT={-:-/ absolute / inch / decimal}
; #@! TF.CreationDate,2022-02-06T23:40:07-05:00
; #@! TF.GenerationSoftware,Kicad,Pcbnew,(6.0.0)
; #@! TF.FileFunction,NonPlated,1,2,NPTH
FMAT,2
INCH
; #@! TA.AperFunction,NonPlated,NPTH,ComponentDrill
T1C0.0689
; #@! TA.AperFunction,NonPlated,NPTH,ComponentDrill
T2C0.1200
; #@! TA.AperFunction,NonPlated,NPTH,ComponentDrill
T3C0.1570
%
G90
G05
T1
X1.3Y-1.5
X1.3Y-2.25
X1.3Y-3.0
X1.3Y-3.75
X1.7Y-1.5
X1.7Y-2.25
X1.7Y-3.0
X1.7Y-3.75
X2.05Y-1.5
X2.05Y-2.25
X2.05Y-3.0
X2.05Y-3.75
X2.45Y-1.5
X2.45Y-2.25
X2.45Y-3.0
X2.45Y-3.75
X2.8Y-1.5
X2.8Y-2.25
X2.8Y-3.0
X2.8Y-3.75
X3.2Y-1.5
X3.2Y-2.25
X3.2Y-3.0
X3.2Y-3.75
X3.55Y-1.5
X3.55Y-2.25
X3.55Y-3.0
X3.55Y-3.75
X3.95Y-1.5
X3.95Y-2.25
X3.95Y-3.0
X3.95Y-3.75
X4.3Y-1.5
X4.3Y-2.25
X4.3Y-3.0
X4.3Y-3.75
X4.7Y-1.5
X4.7Y-2.25
X4.7Y-3.0
X4.7Y-3.75
X5.05Y-1.5
X5.05Y-2.25
X5.05Y-3.0
X5.05Y-3.75
X5.425Y-3.75
X5.45Y-1.5
X5.45Y-2.25
X5.45Y-3.0
X5.45Y-3.75
X5.8Y-1.5
X5.8Y-2.25
X5.8Y-3.0
X5.8Y-3.75
X5.825Y-3.75
X6.2Y-1.5
X6.2Y-2.25
X6.2Y-3.0
X6.2Y-3.75
X6.55Y-1.5
X6.55Y-2.25
X6.55Y-3.0
X6.55Y-3.75
X6.95Y-1.5
X6.95Y-2.25
X6.95Y-3.0
X6.95Y-3.75
X7.3Y-1.5
X7.3Y-2.25
X7.3Y-3.0
X7.3Y-3.75
X7.7Y-1.5
X7.7Y-2.25
X7.7Y-3.0
X7.7Y-3.75
X8.05Y-1.5
X8.05Y-2.25
X8.05Y-3.0
X8.05Y-3.75
X8.45Y-1.5
X8.45Y-2.25
X8.45Y-3.0
X8.45Y-3.75
X8.8Y-1.5
X8.8Y-2.25
X8.8Y-3.0
X8.8Y-3.75
X9.2Y-1.5
X9.2Y-2.25
X9.2Y-3.0
X9.2Y-3.75
X9.55Y-1.5
X9.55Y-2.25
X9.55Y-3.0
X9.55Y-3.75
X9.95Y-1.5
X9.95Y-2.25
X9.95Y-3.0
X9.95Y-3.75
T2
X5.155Y-4.025
X6.095Y-4.025
T3
X1.5Y-1.5
X1.5Y-2.25
X1.5Y-3.0
X1.5Y-3.75
X2.25Y-1.5
X2.25Y-2.25
X2.25Y-3.0
X2.25Y-3.75
X3.0Y-1.5
X3.0Y-2.25
X3.0Y-3.0
X3.0Y-3.75
X3.75Y-1.5
X3.75Y-2.25
X3.75Y-3.0
X3.75Y-3.75
X4.5Y-1.5
X4.5Y-2.25
X4.5Y-3.0
X4.5Y-3.75
X5.155Y-3.425
X5.25Y-1.5
X5.25Y-2.25
X5.25Y-3.0
X5.25Y-3.75
X5.625Y-3.75
X6.0Y-1.5
X6.0Y-2.25
X6.0Y-3.0
X6.0Y-3.75
X6.095Y-3.425
X6.75Y-1.5
X6.75Y-2.25
X6.75Y-3.0
X6.75Y-3.75
X7.5Y-1.5
X7.5Y-2.25
X7.5Y-3.0
X7.5Y-3.75
X8.25Y-1.5
X8.25Y-2.25
X8.25Y-3.0
X8.25Y-3.75
X9.0Y-1.5
X9.0Y-2.25
X9.0Y-3.0
X9.0Y-3.75
X9.75Y-1.5
X9.75Y-2.25
X9.75Y-3.0
X9.75Y-3.75
T0
M30
