G04 #@! TF.GenerationSoftware,KiCad,Pcbnew,(6.0.0)*
G04 #@! TF.CreationDate,2022-02-06T23:40:04-05:00*
G04 #@! TF.ProjectId,Contra,436f6e74-7261-42e6-9b69-6361645f7063,rev?*
G04 #@! TF.SameCoordinates,Original*
G04 #@! TF.FileFunction,Soldermask,Bot*
G04 #@! TF.FilePolarity,Negative*
%FSLAX46Y46*%
G04 Gerber Fmt 4.6, Leading zero omitted, Abs format (unit mm)*
G04 Created by KiCad (PCBNEW (6.0.0)) date 2022-02-06 23:40:04*
%MOMM*%
%LPD*%
G01*
G04 APERTURE LIST*
G04 Aperture macros list*
%AMRoundRect*
0 Rectangle with rounded corners*
0 $1 Rounding radius*
0 $2 $3 $4 $5 $6 $7 $8 $9 X,Y pos of 4 corners*
0 Add a 4 corners polygon primitive as box body*
4,1,4,$2,$3,$4,$5,$6,$7,$8,$9,$2,$3,0*
0 Add four circle primitives for the rounded corners*
1,1,$1+$1,$2,$3*
1,1,$1+$1,$4,$5*
1,1,$1+$1,$6,$7*
1,1,$1+$1,$8,$9*
0 Add four rect primitives between the rounded corners*
20,1,$1+$1,$2,$3,$4,$5,0*
20,1,$1+$1,$4,$5,$6,$7,0*
20,1,$1+$1,$6,$7,$8,$9,0*
20,1,$1+$1,$8,$9,$2,$3,0*%
%AMHorizOval*
0 Thick line with rounded ends*
0 $1 width*
0 $2 $3 position (X,Y) of the first rounded end (center of the circle)*
0 $4 $5 position (X,Y) of the second rounded end (center of the circle)*
0 Add line between two ends*
20,1,$1,$2,$3,$4,$5,0*
0 Add two circle primitives to create the rounded ends*
1,1,$1,$2,$3*
1,1,$1,$4,$5*%
G04 Aperture macros list end*
%ADD10C,2.150000*%
%ADD11C,4.387800*%
%ADD12C,2.650000*%
%ADD13HorizOval,2.650000X0.655001X0.730000X-0.655001X-0.730000X0*%
%ADD14HorizOval,2.650000X0.020000X0.290000X-0.020000X-0.290000X0*%
%ADD15C,3.448000*%
%ADD16C,1.100000*%
%ADD17C,4.800000*%
%ADD18RoundRect,0.200000X0.800000X-0.800000X0.800000X0.800000X-0.800000X0.800000X-0.800000X-0.800000X0*%
%ADD19O,2.000000X2.000000*%
%ADD20RoundRect,0.200000X0.800000X0.800000X-0.800000X0.800000X-0.800000X-0.800000X0.800000X-0.800000X0*%
%ADD21RoundRect,0.200000X-0.850000X0.850000X-0.850000X-0.850000X0.850000X-0.850000X0.850000X0.850000X0*%
%ADD22O,2.100000X2.100000*%
%ADD23C,2.432000*%
G04 APERTURE END LIST*
D10*
X33020000Y-38100000D03*
X43180000Y-38100000D03*
D11*
X38100000Y-38100000D03*
D12*
X35600000Y-34100000D03*
D13*
X34945001Y-34830000D03*
D14*
X40620000Y-33310000D03*
D12*
X40640000Y-33020000D03*
D10*
X52070000Y-38100000D03*
D11*
X57150000Y-38100000D03*
D10*
X62230000Y-38100000D03*
D12*
X54650000Y-34100000D03*
D13*
X53995001Y-34830000D03*
D12*
X59690000Y-33020000D03*
D14*
X59670000Y-33310000D03*
D10*
X81280000Y-38100000D03*
D11*
X76200000Y-38100000D03*
D10*
X71120000Y-38100000D03*
D12*
X73700000Y-34100000D03*
D13*
X73045001Y-34830000D03*
D14*
X78720000Y-33310000D03*
D12*
X78740000Y-33020000D03*
D11*
X95250000Y-38100000D03*
D10*
X90170000Y-38100000D03*
X100330000Y-38100000D03*
D13*
X92095001Y-34830000D03*
D12*
X92750000Y-34100000D03*
D14*
X97770000Y-33310000D03*
D12*
X97790000Y-33020000D03*
D11*
X114300000Y-38100000D03*
D10*
X109220000Y-38100000D03*
X119380000Y-38100000D03*
D12*
X111800000Y-34100000D03*
D13*
X111145001Y-34830000D03*
D12*
X116840000Y-33020000D03*
D14*
X116820000Y-33310000D03*
D10*
X128270000Y-38100000D03*
X138430000Y-38100000D03*
D11*
X133350000Y-38100000D03*
D12*
X130850000Y-34100000D03*
D13*
X130195001Y-34830000D03*
D14*
X135870000Y-33310000D03*
D12*
X135890000Y-33020000D03*
D10*
X147320000Y-38100000D03*
D11*
X152400000Y-38100000D03*
D10*
X157480000Y-38100000D03*
D13*
X149245001Y-34830000D03*
D12*
X149900000Y-34100000D03*
X154940000Y-33020000D03*
D14*
X154920000Y-33310000D03*
D11*
X171450000Y-38100000D03*
D10*
X176530000Y-38100000D03*
X166370000Y-38100000D03*
D12*
X168950000Y-34100000D03*
D13*
X168295001Y-34830000D03*
D14*
X173970000Y-33310000D03*
D12*
X173990000Y-33020000D03*
D10*
X185420000Y-38100000D03*
D11*
X190500000Y-38100000D03*
D10*
X195580000Y-38100000D03*
D12*
X188000000Y-34100000D03*
D13*
X187345001Y-34830000D03*
D12*
X193040000Y-33020000D03*
D14*
X193020000Y-33310000D03*
D10*
X214630000Y-38100000D03*
D11*
X209550000Y-38100000D03*
D10*
X204470000Y-38100000D03*
D13*
X206395001Y-34830000D03*
D12*
X207050000Y-34100000D03*
D14*
X212070000Y-33310000D03*
D12*
X212090000Y-33020000D03*
D10*
X233680000Y-38100000D03*
X223520000Y-38100000D03*
D11*
X228600000Y-38100000D03*
D13*
X225445001Y-34830000D03*
D12*
X226100000Y-34100000D03*
X231140000Y-33020000D03*
D14*
X231120000Y-33310000D03*
D10*
X252730000Y-38100000D03*
D11*
X247650000Y-38100000D03*
D10*
X242570000Y-38100000D03*
D13*
X244495001Y-34830000D03*
D12*
X245150000Y-34100000D03*
D14*
X250170000Y-33310000D03*
D12*
X250190000Y-33020000D03*
D10*
X43180000Y-57150000D03*
X33020000Y-57150000D03*
D11*
X38100000Y-57150000D03*
D13*
X34945001Y-53880000D03*
D12*
X35600000Y-53150000D03*
X40640000Y-52070000D03*
D14*
X40620000Y-52360000D03*
D10*
X62230000Y-57150000D03*
X52070000Y-57150000D03*
D11*
X57150000Y-57150000D03*
D12*
X54650000Y-53150000D03*
D13*
X53995001Y-53880000D03*
D14*
X59670000Y-52360000D03*
D12*
X59690000Y-52070000D03*
D11*
X76200000Y-57150000D03*
D10*
X81280000Y-57150000D03*
X71120000Y-57150000D03*
D13*
X73045001Y-53880000D03*
D12*
X73700000Y-53150000D03*
D14*
X78720000Y-52360000D03*
D12*
X78740000Y-52070000D03*
D11*
X95250000Y-57150000D03*
D10*
X100330000Y-57150000D03*
X90170000Y-57150000D03*
D12*
X92750000Y-53150000D03*
D13*
X92095001Y-53880000D03*
D14*
X97770000Y-52360000D03*
D12*
X97790000Y-52070000D03*
D11*
X114300000Y-57150000D03*
D10*
X119380000Y-57150000D03*
X109220000Y-57150000D03*
D13*
X111145001Y-53880000D03*
D12*
X111800000Y-53150000D03*
X116840000Y-52070000D03*
D14*
X116820000Y-52360000D03*
D11*
X133350000Y-57150000D03*
D10*
X138430000Y-57150000D03*
X128270000Y-57150000D03*
D12*
X130850000Y-53150000D03*
D13*
X130195001Y-53880000D03*
D14*
X135870000Y-52360000D03*
D12*
X135890000Y-52070000D03*
D10*
X157480000Y-57150000D03*
X147320000Y-57150000D03*
D11*
X152400000Y-57150000D03*
D12*
X149900000Y-53150000D03*
D13*
X149245001Y-53880000D03*
D14*
X154920000Y-52360000D03*
D12*
X154940000Y-52070000D03*
D10*
X166370000Y-57150000D03*
D11*
X171450000Y-57150000D03*
D10*
X176530000Y-57150000D03*
D12*
X168950000Y-53150000D03*
D13*
X168295001Y-53880000D03*
D12*
X173990000Y-52070000D03*
D14*
X173970000Y-52360000D03*
D11*
X190500000Y-57150000D03*
D10*
X195580000Y-57150000D03*
X185420000Y-57150000D03*
D13*
X187345001Y-53880000D03*
D12*
X188000000Y-53150000D03*
X193040000Y-52070000D03*
D14*
X193020000Y-52360000D03*
D10*
X204470000Y-57150000D03*
X214630000Y-57150000D03*
D11*
X209550000Y-57150000D03*
D12*
X207050000Y-53150000D03*
D13*
X206395001Y-53880000D03*
D14*
X212070000Y-52360000D03*
D12*
X212090000Y-52070000D03*
D10*
X233680000Y-57150000D03*
X223520000Y-57150000D03*
D11*
X228600000Y-57150000D03*
D12*
X226100000Y-53150000D03*
D13*
X225445001Y-53880000D03*
D12*
X231140000Y-52070000D03*
D14*
X231120000Y-52360000D03*
D10*
X242570000Y-57150000D03*
D11*
X247650000Y-57150000D03*
D10*
X252730000Y-57150000D03*
D12*
X245150000Y-53150000D03*
D13*
X244495001Y-53880000D03*
D14*
X250170000Y-52360000D03*
D12*
X250190000Y-52070000D03*
D10*
X43180000Y-76200000D03*
D11*
X38100000Y-76200000D03*
D10*
X33020000Y-76200000D03*
D12*
X35600000Y-72200000D03*
D13*
X34945001Y-72930000D03*
D12*
X40640000Y-71120000D03*
D14*
X40620000Y-71410000D03*
D10*
X52070000Y-76200000D03*
X62230000Y-76200000D03*
D11*
X57150000Y-76200000D03*
D13*
X53995001Y-72930000D03*
D12*
X54650000Y-72200000D03*
X59690000Y-71120000D03*
D14*
X59670000Y-71410000D03*
D11*
X76200000Y-76200000D03*
D10*
X81280000Y-76200000D03*
X71120000Y-76200000D03*
D12*
X73700000Y-72200000D03*
D13*
X73045001Y-72930000D03*
D12*
X78740000Y-71120000D03*
D14*
X78720000Y-71410000D03*
D10*
X90170000Y-76200000D03*
D11*
X95250000Y-76200000D03*
D10*
X100330000Y-76200000D03*
D13*
X92095001Y-72930000D03*
D12*
X92750000Y-72200000D03*
X97790000Y-71120000D03*
D14*
X97770000Y-71410000D03*
D10*
X119380000Y-76200000D03*
D11*
X114300000Y-76200000D03*
D10*
X109220000Y-76200000D03*
D12*
X111800000Y-72200000D03*
D13*
X111145001Y-72930000D03*
D14*
X116820000Y-71410000D03*
D12*
X116840000Y-71120000D03*
D10*
X128270000Y-76200000D03*
X138430000Y-76200000D03*
D11*
X133350000Y-76200000D03*
D12*
X130850000Y-72200000D03*
D13*
X130195001Y-72930000D03*
D14*
X135870000Y-71410000D03*
D12*
X135890000Y-71120000D03*
D10*
X157480000Y-76200000D03*
X147320000Y-76200000D03*
D11*
X152400000Y-76200000D03*
D12*
X149900000Y-72200000D03*
D13*
X149245001Y-72930000D03*
D12*
X154940000Y-71120000D03*
D14*
X154920000Y-71410000D03*
D10*
X166370000Y-76200000D03*
D11*
X171450000Y-76200000D03*
D10*
X176530000Y-76200000D03*
D12*
X168950000Y-72200000D03*
D13*
X168295001Y-72930000D03*
D12*
X173990000Y-71120000D03*
D14*
X173970000Y-71410000D03*
D10*
X185420000Y-76200000D03*
X195580000Y-76200000D03*
D11*
X190500000Y-76200000D03*
D12*
X188000000Y-72200000D03*
D13*
X187345001Y-72930000D03*
D14*
X193020000Y-71410000D03*
D12*
X193040000Y-71120000D03*
D10*
X214630000Y-76200000D03*
X204470000Y-76200000D03*
D11*
X209550000Y-76200000D03*
D13*
X206395001Y-72930000D03*
D12*
X207050000Y-72200000D03*
D14*
X212070000Y-71410000D03*
D12*
X212090000Y-71120000D03*
D11*
X228600000Y-76200000D03*
D10*
X223520000Y-76200000D03*
X233680000Y-76200000D03*
D12*
X226100000Y-72200000D03*
D13*
X225445001Y-72930000D03*
D12*
X231140000Y-71120000D03*
D14*
X231120000Y-71410000D03*
D10*
X242570000Y-76200000D03*
D11*
X247650000Y-76200000D03*
D10*
X252730000Y-76200000D03*
D12*
X245150000Y-72200000D03*
D13*
X244495001Y-72930000D03*
D14*
X250170000Y-71410000D03*
D12*
X250190000Y-71120000D03*
D11*
X38100000Y-95250000D03*
D10*
X33020000Y-95250000D03*
X43180000Y-95250000D03*
D13*
X34945001Y-91980000D03*
D12*
X35600000Y-91250000D03*
X40640000Y-90170000D03*
D14*
X40620000Y-90460000D03*
D11*
X57150000Y-95250000D03*
D10*
X52070000Y-95250000D03*
X62230000Y-95250000D03*
D13*
X53995001Y-91980000D03*
D12*
X54650000Y-91250000D03*
X59690000Y-90170000D03*
D14*
X59670000Y-90460000D03*
D11*
X76200000Y-95250000D03*
D10*
X81280000Y-95250000D03*
X71120000Y-95250000D03*
D12*
X73700000Y-91250000D03*
D13*
X73045001Y-91980000D03*
D12*
X78740000Y-90170000D03*
D14*
X78720000Y-90460000D03*
D10*
X100330000Y-95250000D03*
X90170000Y-95250000D03*
D11*
X95250000Y-95250000D03*
D13*
X92095001Y-91980000D03*
D12*
X92750000Y-91250000D03*
X97790000Y-90170000D03*
D14*
X97770000Y-90460000D03*
D10*
X119380000Y-95250000D03*
D11*
X114300000Y-95250000D03*
D10*
X109220000Y-95250000D03*
D12*
X111800000Y-91250000D03*
D13*
X111145001Y-91980000D03*
D14*
X116820000Y-90460000D03*
D12*
X116840000Y-90170000D03*
D11*
X133350000Y-95250000D03*
D10*
X138430000Y-95250000D03*
X128270000Y-95250000D03*
D13*
X130195001Y-91980000D03*
D12*
X130850000Y-91250000D03*
X135890000Y-90170000D03*
D14*
X135870000Y-90460000D03*
D11*
X152400000Y-95250000D03*
D10*
X147320000Y-95250000D03*
X157480000Y-95250000D03*
D12*
X149900000Y-91250000D03*
D13*
X149245001Y-91980000D03*
D14*
X154920000Y-90460000D03*
D12*
X154940000Y-90170000D03*
D10*
X166370000Y-95250000D03*
D11*
X171450000Y-95250000D03*
D10*
X176530000Y-95250000D03*
D12*
X168950000Y-91250000D03*
D13*
X168295001Y-91980000D03*
D14*
X173970000Y-90460000D03*
D12*
X173990000Y-90170000D03*
D10*
X195580000Y-95250000D03*
D11*
X190500000Y-95250000D03*
D10*
X185420000Y-95250000D03*
D13*
X187345001Y-91980000D03*
D12*
X188000000Y-91250000D03*
D14*
X193020000Y-90460000D03*
D12*
X193040000Y-90170000D03*
D10*
X204470000Y-95250000D03*
D11*
X209550000Y-95250000D03*
D10*
X214630000Y-95250000D03*
D12*
X207050000Y-91250000D03*
D13*
X206395001Y-91980000D03*
D14*
X212070000Y-90460000D03*
D12*
X212090000Y-90170000D03*
D11*
X228600000Y-95250000D03*
D10*
X233680000Y-95250000D03*
X223520000Y-95250000D03*
D13*
X225445001Y-91980000D03*
D12*
X226100000Y-91250000D03*
X231140000Y-90170000D03*
D14*
X231120000Y-90460000D03*
D11*
X247650000Y-95250000D03*
D10*
X242570000Y-95250000D03*
X252730000Y-95250000D03*
D12*
X245150000Y-91250000D03*
D13*
X244495001Y-91980000D03*
D14*
X250170000Y-90460000D03*
D12*
X250190000Y-90170000D03*
D15*
X130937000Y-102235000D03*
D10*
X147955000Y-95250000D03*
X137795000Y-95250000D03*
D11*
X154813000Y-86995000D03*
X142875000Y-95250000D03*
X130937000Y-86995000D03*
D15*
X154813000Y-102235000D03*
D13*
X139720001Y-91980000D03*
D12*
X140375000Y-91250000D03*
X145415000Y-90170000D03*
D14*
X145395000Y-90460000D03*
D16*
X236958274Y-86891726D03*
X239775000Y-85725000D03*
X239291726Y-84558274D03*
X236958274Y-84558274D03*
X236475000Y-85725000D03*
X238125000Y-87375000D03*
X239291726Y-86891726D03*
X238125000Y-84075000D03*
D17*
X238125000Y-85725000D03*
D16*
X238125000Y-49275000D03*
X236958274Y-46458274D03*
D17*
X238125000Y-47625000D03*
D16*
X236475000Y-47625000D03*
X239291726Y-46458274D03*
X239291726Y-48791726D03*
X239775000Y-47625000D03*
X236958274Y-48791726D03*
X238125000Y-45975000D03*
X141225000Y-66675000D03*
X141708274Y-65508274D03*
X144041726Y-65508274D03*
X144525000Y-66675000D03*
X144041726Y-67841726D03*
X142875000Y-65025000D03*
X142875000Y-68325000D03*
X141708274Y-67841726D03*
D17*
X142875000Y-66675000D03*
D16*
X49275000Y-47625000D03*
X46458274Y-48791726D03*
X48791726Y-46458274D03*
X45975000Y-47625000D03*
X46458274Y-46458274D03*
X47625000Y-49275000D03*
X47625000Y-45975000D03*
X48791726Y-48791726D03*
D17*
X47625000Y-47625000D03*
D16*
X48791726Y-86891726D03*
X49275000Y-85725000D03*
X45975000Y-85725000D03*
D17*
X47625000Y-85725000D03*
D16*
X47625000Y-87375000D03*
X46458274Y-86891726D03*
X47625000Y-84075000D03*
X46458274Y-84558274D03*
X48791726Y-84558274D03*
D18*
X47625000Y-41751250D03*
D19*
X47625000Y-34131250D03*
D20*
X60801250Y-47625000D03*
D19*
X53181250Y-47625000D03*
D20*
X79851250Y-66675000D03*
D19*
X72231250Y-66675000D03*
D18*
X104775000Y-41751250D03*
D19*
X104775000Y-34131250D03*
D18*
X123825000Y-41751250D03*
D19*
X123825000Y-34131250D03*
D18*
X142875000Y-41751250D03*
D19*
X142875000Y-34131250D03*
D18*
X161925000Y-41751250D03*
D19*
X161925000Y-34131250D03*
D18*
X180975000Y-41751250D03*
D19*
X180975000Y-34131250D03*
D18*
X200025000Y-41751250D03*
D19*
X200025000Y-34131250D03*
D18*
X219075000Y-41751250D03*
D19*
X219075000Y-34131250D03*
D18*
X238125000Y-41751250D03*
D19*
X238125000Y-34131250D03*
D20*
X251301250Y-47625000D03*
D19*
X243681250Y-47625000D03*
D20*
X42068750Y-47625000D03*
D19*
X34448750Y-47625000D03*
D20*
X60801250Y-66675000D03*
D19*
X53181250Y-66675000D03*
D20*
X98901250Y-66675000D03*
D19*
X91281250Y-66675000D03*
D18*
X104775000Y-60801250D03*
D19*
X104775000Y-53181250D03*
D18*
X123825000Y-60801250D03*
D19*
X123825000Y-53181250D03*
D18*
X142875000Y-60801250D03*
D19*
X142875000Y-53181250D03*
D18*
X161925000Y-60801250D03*
D19*
X161925000Y-53181250D03*
D18*
X180975000Y-60801250D03*
D19*
X180975000Y-53181250D03*
D18*
X200025000Y-60801250D03*
D19*
X200025000Y-53181250D03*
D18*
X219075000Y-60801250D03*
D19*
X219075000Y-53181250D03*
D18*
X238125000Y-60801250D03*
D19*
X238125000Y-53181250D03*
D20*
X251301250Y-66675000D03*
D19*
X243681250Y-66675000D03*
D20*
X61118750Y-85725000D03*
D19*
X53498750Y-85725000D03*
D18*
X66675000Y-79851250D03*
D19*
X66675000Y-72231250D03*
D18*
X85725000Y-79851250D03*
D19*
X85725000Y-72231250D03*
D18*
X104775000Y-79851250D03*
D19*
X104775000Y-72231250D03*
D18*
X123825000Y-79851250D03*
D19*
X123825000Y-72231250D03*
D18*
X142875000Y-79851250D03*
D19*
X142875000Y-72231250D03*
D18*
X161925000Y-79851250D03*
D19*
X161925000Y-72231250D03*
D18*
X180975000Y-79851250D03*
D19*
X180975000Y-72231250D03*
D18*
X200025000Y-79851250D03*
D19*
X200025000Y-72231250D03*
D18*
X219075000Y-79851250D03*
D19*
X219075000Y-72231250D03*
D20*
X232251250Y-85725000D03*
D19*
X224631250Y-85725000D03*
D18*
X238125000Y-79851250D03*
D19*
X238125000Y-72231250D03*
D20*
X41751250Y-85725000D03*
D19*
X34131250Y-85725000D03*
D18*
X47625000Y-98901250D03*
D19*
X47625000Y-91281250D03*
D18*
X66675000Y-98901250D03*
D19*
X66675000Y-91281250D03*
D18*
X85725000Y-98901250D03*
D19*
X85725000Y-91281250D03*
D18*
X104775000Y-98901250D03*
D19*
X104775000Y-91281250D03*
D18*
X123825000Y-98901250D03*
D19*
X123825000Y-91281250D03*
D18*
X161925000Y-98901250D03*
D19*
X161925000Y-91281250D03*
D18*
X180975000Y-98901250D03*
D19*
X180975000Y-91281250D03*
D18*
X200025000Y-98901250D03*
D19*
X200025000Y-91281250D03*
D18*
X219075000Y-98901250D03*
D19*
X219075000Y-91281250D03*
D18*
X238125000Y-98901250D03*
D19*
X238125000Y-91281250D03*
D20*
X251301250Y-85725000D03*
D19*
X243681250Y-85725000D03*
D21*
X41910000Y-66675000D03*
D22*
X39370000Y-66675000D03*
X36830000Y-66675000D03*
X34290000Y-66675000D03*
D23*
X83820000Y-32543750D03*
X83820000Y-35083750D03*
X83820000Y-37623750D03*
X83820000Y-40163750D03*
X83820000Y-42703750D03*
X83820000Y-45243750D03*
X83820000Y-47783750D03*
X83820000Y-50323750D03*
X83820000Y-52863750D03*
X83820000Y-55403750D03*
X83820000Y-57943750D03*
X83820000Y-60483750D03*
X68580000Y-60483750D03*
X68580000Y-57943750D03*
X68580000Y-55403750D03*
X68580000Y-52863750D03*
X68580000Y-50323750D03*
X68580000Y-47783750D03*
X68580000Y-45243750D03*
X68580000Y-42703750D03*
X68580000Y-40163750D03*
X68580000Y-37623750D03*
X68580000Y-35083750D03*
X68580000Y-32543750D03*
M02*
